<?xml version="1.0" encoding="utf-8"?>
<!-- Generator: Adobe Illustrator 25.0.0, SVG Export Plug-In . SVG Version: 6.00 Build 0)  -->
<svg version="1.1" id="Layer_1" xmlns="http://www.w3.org/2000/svg" xmlns:xlink="http://www.w3.org/1999/xlink" x="0px" y="0px"
	 viewBox="0 0 43 40" style="enable-background:new 0 0 43 40;" xml:space="preserve">
<style type="text/css">
	.st0{fill:#FFFFFF;}
</style>
<path class="st0" d="M21.9,5.9c-0.2-0.5-0.6-1.2-1.1-2c-0.6-0.8-1.4-1.8-2.4-2.6c0.5,0,1,0,1.4,0c0.3,0.3,0.6,0.7,0.9,1
	c0.7,1,1.1,2,1.2,2.7c0,0,0,0.1,0,0.1c0,0,0-0.1,0-0.1c0.1-0.6,0.5-1.7,1.2-2.7c0.3-0.4,0.5-0.7,0.9-1c0.4,0,0.9-0.1,1.4,0
	c-1,0.8-1.8,1.7-2.4,2.6C22.5,4.7,22.2,5.4,21.9,5.9l0,0.1C21.9,6,21.9,6,21.9,5.9c0,0.1,0,0.1,0,0.1V5.9z"/>
<path class="st0" d="M21.9,1.9c-0.3-0.1-0.7-0.3-1.2-0.4C20.8,1.8,21,2,21.2,2.2c0.3,0.4,0.5,0.8,0.7,1.2v0.1c0,0,0,0,0-0.1
	c0,0,0,0,0,0.1V3.4c0.2-0.4,0.4-0.8,0.7-1.2C22.8,2,23,1.8,23.2,1.6C22.7,1.7,22.2,1.8,21.9,1.9z"/>
<path class="st0" d="M20.3,4.2c-0.6-0.9-1.5-1.9-2.7-2.8c-0.3,0-0.5,0.1-0.8,0.1c0.9,0.5,1.7,1.2,2.3,1.9c0.4,0.4,0.7,0.8,1,1.2
	c0.1,0.2,0.3,0.3,0.4,0.5c0.3,0.4,0.6,0.7,0.9,1C21.1,5.6,20.8,4.9,20.3,4.2z"/>
<path class="st0" d="M18.6,3.8c-0.8-0.8-1.6-1.6-2.6-2c-0.3,0.1-0.7,0.3-1,0.4c0.9,0.2,1.7,0.7,2.4,1.2c0.5,0.4,1,0.9,1.4,1.3
	C18.9,4.9,19,5,19.2,5.2c0.3,0.3,0.5,0.5,0.7,0.6c0,0,0,0,0,0c0.1,0,0.3,0.1,0.4,0.1c-0.1-0.2-0.3-0.3-0.4-0.5
	c-0.1-0.2-0.3-0.3-0.4-0.5C19.3,4.6,18.9,4.2,18.6,3.8z"/>
<path class="st0" d="M21.9,31.6C21.9,31.6,21.9,31.6,21.9,31.6C21.9,31.6,21.9,31.5,21.9,31.6c0.1-0.5,0.3-0.9,0.5-1.3
	c0.2-0.5,0.4-1,0.7-1.5l0.1-0.2c0.2-0.4,0.4-0.9,0.6-1.3c0.8-1.8,1.2-3.6-0.1-5.5c-0.5,0.2-1.1,0.2-1.7,0.2c-0.6,0-1.2-0.1-1.7-0.2
	c-1.3,1.9-0.9,3.6-0.1,5.5c0.2,0.4,0.4,0.8,0.6,1.3l0.1,0.2c0.2,0.5,0.5,1,0.7,1.5C21.6,30.7,21.8,31.1,21.9,31.6
	C21.9,31.5,21.9,31.6,21.9,31.6C21.9,31.6,21.9,31.6,21.9,31.6z"/>
<path class="st0" d="M19.6,21.7c-1.4,2.1-0.9,4-0.1,5.9c0.2,0.4,0.4,0.9,0.6,1.3l0.1,0.2c0.2,0.5,0.5,1,0.7,1.4
	c0.2,0.5,0.4,1.1,0.5,1.6c-0.3-0.6-0.7-1.1-1.2-1.6c-0.2-0.3-0.4-0.6-0.6-1c-0.2-0.3-0.4-0.7-0.6-1c-0.4-0.7-0.9-1.4-1.2-2.1
	c-0.5-1-0.9-2.1-0.8-3c0.1-0.9,0.5-1.7,1.6-2.6C18.9,21.2,19.2,21.5,19.6,21.7z"/>
<path class="st0" d="M16.5,23.4c0.1-1.1,0.7-2.1,2-3.1c0-0.1,0-0.1,0-0.2c0,0,0.1-0.1,0.3-0.2c0.2-0.1,0.5-0.1,0.7-0.1
	c0.1,0,0.2,0,0.3,0c0.4-0.1,0.8-0.2,1.2-0.3c0.3-0.1,0.6-0.3,0.8-0.5c0.2,0.2,0.5,0.4,0.8,0.5c0.4,0.2,0.8,0.3,1.2,0.3
	c0.1,0,0.2,0,0.3,0c0.3,0,0.5,0.1,0.7,0.1c0.2,0.1,0.3,0.1,0.3,0.2c0,0.1,0,0.1,0,0.2c1.3,1,1.9,2,2,3.1c0.1,1.1-0.3,2.2-0.8,3.3
	c-0.4,0.7-0.8,1.4-1.3,2.1c-0.1,0.2-0.2,0.3-0.3,0.5c0.8-0.6,1.7-1.1,2.6-1.6l0.1-0.1c0.9-2.1,1-3.7,0.7-5c-0.4-1.6-1.4-2.7-2.4-3.5
	c0,0,0,0,0,0c0,0,0,0,0,0c-0.1,0.1-0.1,0.1-0.2,0.2c0,0-0.1,0.1-0.1,0.1c0,0,0,0-0.1,0c0,0-0.1,0-0.2,0.1c-0.1,0-0.1,0-0.2,0
	c0,0,0,0-0.1,0c-0.2-0.1-0.5-0.1-0.8-0.2c-0.1,0-0.2,0-0.3,0c-0.4-0.1-0.8-0.1-1.1-0.3c-0.3-0.1-0.6-0.3-0.7-0.5l0.2-1
	c0.1-0.3,0.2-0.6,0.6-0.8c0,0,0.1,0,0.1-0.1l0,0c0.4-0.3,0.9-0.5,1.3-1c0.2-0.2,0.3-0.5,0.3-0.7c-0.3,0.3-0.7,0.4-1.2,0.4h-3.2
	c-0.4,0-0.9-0.1-1.2-0.4c0,0.3,0.1,0.5,0.3,0.7c0.4,0.4,0.9,0.7,1.3,1l0,0c0,0,0.1,0,0.1,0.1c0.3,0.2,0.5,0.5,0.6,0.8l0.2,1
	c-0.1,0.2-0.4,0.4-0.7,0.5c-0.3,0.1-0.7,0.2-1.1,0.3c-0.1,0-0.2,0-0.3,0c-0.3,0-0.6,0.1-0.8,0.2c0,0,0,0-0.1,0c-0.1,0-0.1,0-0.2,0
	c-0.1,0-0.1,0-0.2-0.1c0,0,0,0-0.1,0c0,0-0.1,0-0.1-0.1c-0.1,0-0.1-0.1-0.2-0.2c0,0,0,0,0,0c-1,0.9-2,2-2.4,3.5
	c-0.3,1.3-0.3,2.9,0.7,5l0.1,0.1c0.9,0.5,1.8,1,2.6,1.6c-0.1-0.2-0.2-0.3-0.3-0.5c-0.4-0.7-0.9-1.4-1.3-2.1
	C16.8,25.6,16.4,24.5,16.5,23.4z"/>
<path class="st0" d="M17.6,18.6c-1,0.9-2.1,2.1-2.6,3.8c-0.3,1.3-0.3,2.8,0.4,4.7c-0.7-0.4-1.4-0.9-2.1-1.4c-0.2-0.5-0.3-1-0.3-1.5
	c0-1.2,0.4-2.2,1.1-3.1c0.5-0.7,1.1-1.3,1.7-1.9c0.2-0.2,0.3-0.3,0.5-0.5c0.3-0.3,0.6-0.7,0.8-1l0,0c0.1,0.2,0.2,0.5,0.3,0.7
	C17.5,18.5,17.5,18.6,17.6,18.6z"/>
<path class="st0" d="M16.6,17.4c0.1-0.2,0.2-0.4,0.3-0.6c0-0.2,0-0.5,0-0.7c0-0.2,0.1-0.5,0.1-0.6l-0.2-0.1c0,0-0.1-0.1-0.1-0.1
	c0,0,0,0.1,0,0.1c-0.1,0.3-0.3,0.6-0.5,1c-0.5,0.7-1.4,1.7-2.8,2.8c-1.7,1.3-2.2,2.6-2.2,3.7c0,0.2,0,0.5,0.1,0.7
	c0.4,0.6,0.9,1.1,1.4,1.5c-0.1-0.3-0.1-0.6-0.1-0.8c0-1.3,0.5-2.4,1.2-3.4c0.5-0.7,1.2-1.4,1.8-2c0.2-0.2,0.3-0.3,0.5-0.5
	C16.1,18.1,16.4,17.7,16.6,17.4z"/>
<path class="st0" d="M16.2,14.8c0,0.1,0,0.2-0.1,0.4c-0.1,0.2-0.2,0.5-0.5,0.9c-0.5,0.7-1.3,1.6-2.7,2.6c-1.7,1.3-2.4,2.6-2.4,3.9
	c-0.2-0.3-0.4-0.6-0.6-1c0-0.2,0-0.4,0.1-0.6c0.2-1.3,1.1-2.5,2.7-3.6c1.4-1,2.2-1.9,2.7-2.5c0.1-0.2,0.3-0.4,0.3-0.6
	C15.8,14.5,16,14.7,16.2,14.8z"/>
<path class="st0" d="M15.3,13.9C15.3,13.8,15.3,13.8,15.3,13.9c-0.1-0.4-0.2-0.7-0.3-0.9c-0.2,0.2-0.4,0.5-0.8,0.8
	c-0.6,0.6-1.6,1.4-2.9,2.3c-1.5,1-2.1,2.4-2.3,3.5c0.1,0.4,0.3,0.8,0.5,1.2c0.3-1.3,1.2-2.6,2.9-3.7c1.3-0.9,2.1-1.8,2.5-2.4
	C15,14.3,15.2,14,15.3,13.9z"/>
<path class="st0" d="M14.8,12.2c-0.1,0.2-0.4,0.6-1,1.2c-0.6,0.6-1.5,1.4-2.8,2.3c-1.2,0.8-1.9,1.8-2.3,2.8
	c-0.2-0.9-0.3-1.7-0.3-2.6c0.3-0.7,1.2-1.8,3.2-2.6c1.3-0.5,2.3-1.2,2.9-1.7c0.1-0.1,0.2-0.2,0.3-0.2C14.7,11.6,14.7,11.9,14.8,12.2
	z"/>
<path class="st0" d="M14.1,11.2c0.5-0.4,0.8-0.8,0.9-1c0.1-0.2,0.1-0.4,0.2-0.6c-0.2-0.1-0.3-0.1-0.4-0.2c-0.5,0.4-1.5,1-3.4,1.7
	c-1.1,0.4-1.7,0.9-2.1,1.6c-0.3,0.6-0.5,1.2-0.5,1.8c0.6-0.6,1.4-1.1,2.6-1.6C12.5,12.3,13.5,11.7,14.1,11.2z"/>
<path class="st0" d="M15.4,9.2c-1.8-0.7-2.5-1.9-2.5-3c0-1.2,0.7-2.1,1.7-2.2c0.4,0,0.9,0.1,1.5,0.6c0.3,0.2,0.6,0.5,1,0.8l0,0
	c0.3,0.3,0.7,0.5,1,0.8c-0.2,0.1-0.3,0.2-0.5,0.4c-0.4-0.6-1.5-1.1-3.5-1c-0.2,0-0.3,0.1-0.3,0.3c0,0.1,0.1,0.2,0.3,0.2
	C16.3,6,17.1,6.6,17.2,7c0,0-0.1,0-0.1,0.1c-0.5-0.1-1-0.1-1.6-0.1C15,7,14.4,7,13.9,7.2c-0.2,0-0.2,0.2-0.2,0.3
	c0.1,0.1,0.2,0.2,0.4,0.2c0.4-0.1,0.9-0.2,1.5-0.2c0.4,0,0.8,0,1.1,0C16.2,8,15.7,8.6,15.4,9.2z"/>
<path class="st0" d="M17.5,5c0.3,0.3,0.7,0.6,1.2,0.9c0.1,0,0.1,0,0.2-0.1c0.1,0,0.2,0,0.2-0.1c-0.1-0.1-0.2-0.2-0.4-0.3
	c-0.2-0.2-0.3-0.3-0.5-0.5c-0.4-0.4-0.8-0.8-1.3-1.2c-0.2-0.2-0.5-0.4-0.8-0.6C15,2.6,13.6,3,12.7,4c-1.5,1.6-1,2.9-0.5,4.1
	c-0.6,0.1-1.3,0.5-1.9,1.3c0.4-0.2,0.9-0.4,1.3-0.5c0.7-0.2,1.3-0.3,1.8-0.3c-0.7-0.7-1-1.6-1-2.3c0-1.3,0.8-2.6,2.2-2.7
	c0.7-0.1,1.3,0.3,2,0.7C16.8,4.4,17.1,4.7,17.5,5L17.5,5z"/>
<path class="st0" d="M11.7,9.3c-0.4,0.1-0.9,0.3-1.3,0.5c-0.7,0.4-1.2,1.1-1.5,1.9c-0.1,0.2-0.1,0.4-0.2,0.5
	c0.5-0.6,1.2-1.2,2.3-1.6c1.7-0.6,2.6-1.1,3.1-1.5c-0.1,0-0.1-0.1-0.2-0.1C13.5,9,12.7,9,11.7,9.3z"/>
<path class="st0" d="M20.8,10.7l-1,2.9c0.3-0.8,0.2-1.6,0.1-2.1c-0.4,0-0.7,0-0.9-0.1c-0.7-0.2-1.2-0.7-1.6-1.2
	c-0.1-0.1-0.1-0.2-0.2-0.2c-0.1-0.1-0.2-0.2-0.3-0.3c0.2,0,0.4,0.1,0.6,0.1C18.7,9.9,19.7,10.1,20.8,10.7z"/>
<path class="st0" d="M19.9,13.6C19.9,13.6,19.9,13.6,19.9,13.6L19.9,13.6z"/>
<path class="st0" d="M23.5,4.2c0.6-0.9,1.5-1.9,2.7-2.8c0.3,0,0.5,0.1,0.8,0.1c-0.9,0.5-1.7,1.2-2.3,1.9c-0.4,0.4-0.7,0.8-1,1.2
	c-0.1,0.2-0.3,0.3-0.4,0.5c-0.3,0.4-0.6,0.7-0.9,1C22.7,5.6,23,4.9,23.5,4.2z"/>
<path class="st0" d="M25.2,3.8c0.8-0.8,1.6-1.6,2.6-2c0.3,0.1,0.7,0.3,1,0.4c-0.9,0.2-1.7,0.7-2.4,1.2c-0.5,0.4-1,0.9-1.4,1.3
	c-0.2,0.2-0.3,0.3-0.5,0.4c-0.3,0.3-0.5,0.5-0.7,0.6c0,0,0,0,0,0c-0.1,0-0.3,0.1-0.4,0.1c0.1-0.2,0.3-0.3,0.4-0.5
	c0.1-0.2,0.3-0.3,0.4-0.5C24.6,4.6,24.9,4.2,25.2,3.8z"/>
<path class="st0" d="M24.2,21.7c1.4,2.1,0.9,4,0.1,5.9c-0.2,0.4-0.4,0.9-0.6,1.3L23.6,29c-0.2,0.5-0.5,1-0.7,1.4
	c-0.2,0.5-0.4,1.1-0.5,1.6c0.3-0.6,0.7-1.1,1.2-1.6c0.2-0.3,0.4-0.6,0.6-1c0.2-0.3,0.4-0.7,0.6-1c0.4-0.7,0.9-1.4,1.2-2.1
	c0.5-1,0.9-2.1,0.8-3c-0.1-0.9-0.5-1.7-1.6-2.6C25,21.2,24.6,21.5,24.2,21.7z"/>
<path class="st0" d="M26.3,18.6c1,0.9,2.1,2.1,2.6,3.8c0.3,1.3,0.3,2.8-0.4,4.7c0.7-0.4,1.4-0.9,2.1-1.4c0.2-0.5,0.3-1,0.3-1.5
	c0-1.2-0.4-2.2-1.1-3.1c-0.5-0.7-1.1-1.3-1.7-1.9c-0.2-0.2-0.3-0.3-0.5-0.5c-0.3-0.3-0.6-0.7-0.8-1l0,0c-0.1,0.2-0.2,0.5-0.3,0.7
	C26.4,18.5,26.3,18.6,26.3,18.6z"/>
<path class="st0" d="M27.2,17.4C27.1,17.2,27,17,27,16.9c0-0.2,0-0.5,0-0.7c0-0.2-0.1-0.5-0.1-0.6l0.2-0.1c0,0,0.1-0.1,0.1-0.1
	c0,0,0,0.1,0,0.1c0.1,0.3,0.3,0.6,0.5,1c0.5,0.7,1.4,1.7,2.8,2.8c1.7,1.3,2.2,2.6,2.2,3.7c0,0.2,0,0.5-0.1,0.7
	c-0.4,0.6-0.9,1.1-1.4,1.5c0.1-0.3,0.1-0.6,0.1-0.8c0-1.3-0.5-2.4-1.2-3.4c-0.5-0.7-1.2-1.4-1.8-2c-0.2-0.2-0.3-0.3-0.5-0.5
	C27.7,18.1,27.4,17.7,27.2,17.4z"/>
<path class="st0" d="M27.7,14.8c0,0.1,0,0.2,0.1,0.4c0.1,0.2,0.2,0.5,0.5,0.9c0.5,0.7,1.3,1.6,2.7,2.6c1.7,1.3,2.4,2.6,2.4,3.9
	c0.2-0.3,0.4-0.6,0.6-1c0-0.2,0-0.4-0.1-0.6c-0.2-1.3-1.1-2.5-2.7-3.6c-1.4-1-2.2-1.9-2.7-2.5c-0.1-0.2-0.3-0.4-0.3-0.6
	C28,14.5,27.9,14.7,27.7,14.8z"/>
<path class="st0" d="M28.6,13.9C28.6,13.8,28.5,13.8,28.6,13.9c0.1-0.4,0.2-0.7,0.3-0.9c0.2,0.2,0.4,0.5,0.8,0.8
	c0.6,0.6,1.6,1.4,2.9,2.3c1.5,1,2.1,2.4,2.3,3.5c-0.1,0.4-0.3,0.8-0.5,1.2c-0.3-1.3-1.2-2.6-2.9-3.7c-1.3-0.9-2.1-1.8-2.5-2.4
	C28.8,14.3,28.7,14,28.6,13.9z"/>
<path class="st0" d="M29.1,12.2c0.1,0.2,0.4,0.6,1,1.2c0.6,0.6,1.5,1.4,2.8,2.3c1.2,0.8,1.9,1.8,2.3,2.8c0.2-0.9,0.3-1.7,0.3-2.6
	c-0.3-0.7-1.2-1.8-3.2-2.6c-1.3-0.5-2.3-1.2-2.9-1.7c-0.1-0.1-0.2-0.2-0.3-0.2C29.1,11.6,29.1,11.9,29.1,12.2z"/>
<path class="st0" d="M29.8,11.2c-0.5-0.4-0.8-0.8-0.9-1c-0.1-0.2-0.1-0.4-0.2-0.6c0.2-0.1,0.3-0.1,0.4-0.2c0.5,0.4,1.5,1,3.4,1.7
	c1.1,0.4,1.7,0.9,2.1,1.6c0.3,0.6,0.5,1.2,0.5,1.8c-0.6-0.6-1.4-1.1-2.6-1.6C31.3,12.3,30.4,11.7,29.8,11.2z"/>
<path class="st0" d="M28.4,9.2c1.8-0.7,2.5-1.9,2.5-3c0-1.2-0.7-2.1-1.7-2.2c-0.4,0-0.9,0.1-1.5,0.6c-0.3,0.2-0.6,0.5-1,0.8l0,0
	c-0.3,0.3-0.7,0.5-1,0.8c0.2,0.1,0.3,0.2,0.5,0.4c0.4-0.6,1.5-1.1,3.5-1c0.2,0,0.3,0.1,0.3,0.3c0,0.1-0.1,0.2-0.3,0.2
	C27.5,6,26.8,6.6,26.6,7c0,0,0.1,0,0.1,0.1c0.5-0.1,1-0.1,1.6-0.1c0.6,0,1.2,0.1,1.6,0.3c0.2,0,0.2,0.2,0.2,0.3
	c-0.1,0.1-0.2,0.2-0.4,0.2c-0.4-0.1-0.9-0.2-1.5-0.2c-0.4,0-0.8,0-1.1,0C27.7,8,28.1,8.6,28.4,9.2z"/>
<path class="st0" d="M26.3,5c-0.3,0.3-0.7,0.6-1.2,0.9c-0.1,0-0.1,0-0.2-0.1c-0.1,0-0.2,0-0.2-0.1c0.1-0.1,0.2-0.2,0.4-0.3
	c0.2-0.2,0.3-0.3,0.5-0.5c0.4-0.4,0.8-0.8,1.3-1.2c0.2-0.2,0.5-0.4,0.8-0.6C28.8,2.6,30.3,3,31.2,4c1.5,1.6,1,2.9,0.5,4.1
	c0.6,0.1,1.3,0.5,1.9,1.3c-0.4-0.2-0.9-0.4-1.3-0.5c-0.7-0.2-1.3-0.3-1.8-0.3c0.7-0.7,1-1.6,1-2.3c0-1.3-0.8-2.6-2.2-2.7
	c-0.7-0.1-1.3,0.3-2,0.7C27.1,4.4,26.7,4.7,26.3,5L26.3,5z"/>
<path class="st0" d="M32.1,9.3c0.4,0.1,0.9,0.3,1.3,0.5c0.7,0.4,1.2,1.1,1.5,1.9c0.1,0.2,0.1,0.4,0.2,0.5c-0.5-0.6-1.2-1.2-2.3-1.6
	c-1.7-0.6-2.6-1.1-3.1-1.5c0.1,0,0.1-0.1,0.2-0.1C30.3,9,31.2,9,32.1,9.3z"/>
<path class="st0" d="M23,10.7l1,2.9c0,0,0,0,0,0l0,0c-0.3-0.8-0.2-1.6-0.1-2.1c0.4,0,0.7,0,0.9-0.1c0.7-0.2,1.2-0.7,1.6-1.2
	c0.1-0.1,0.1-0.2,0.2-0.2c0.1-0.1,0.2-0.2,0.3-0.3c-0.2,0-0.4,0.1-0.6,0.1C25.2,9.9,24.1,10.1,23,10.7z"/>
<path class="st0" d="M10.6,34.4c0,0,0-0.1,0-0.1c-0.1-0.1-0.1-0.2-0.3-0.2H7.9c-0.2,0-0.3,0.1-0.3,0.3v3.8c0,0.2,0.1,0.3,0.3,0.3
	h2.3c0.1,0,0.2,0,0.2-0.1c0.1-0.1,0.1-0.1,0.1-0.2s0-0.2-0.1-0.2c-0.1-0.1-0.1-0.1-0.2-0.1h-2V37h2c0.1,0,0.2,0,0.2-0.1
	c0.1-0.1,0.1-0.1,0.1-0.2s0-0.2-0.1-0.2c-0.1-0.1-0.1-0.1-0.2-0.1H8.6l1.8-1.8C10.5,34.5,10.6,34.4,10.6,34.4z M8.2,36v-1.3h1.3
	L8.2,36z"/>
<path class="st0" d="M12.8,37c-0.4-0.4-0.7-0.6-0.8-0.7l1.7-1.7c0.1-0.1,0.1-0.1,0.1-0.2c0,0,0-0.1,0-0.1c-0.1-0.1-0.1-0.2-0.3-0.2
	h-1c-0.4,0-0.8,0.1-1.1,0.4c-0.3,0.3-0.4,0.6-0.4,1.1c0,0.2,0,0.4,0.2,0.6c0.1,0.1,0.1,0.2,0.2,0.3c0.1,0.1,0.2,0.2,0.3,0.3L12,37
	l0.4,0.4l0.5,0.4h-1.5c-0.1,0-0.2,0-0.2,0.1s-0.1,0.1-0.1,0.2s0,0.2,0.1,0.2s0.1,0.1,0.2,0.1h2.3c0.1,0,0.2-0.1,0.3-0.2
	c0,0,0-0.1,0-0.1c0-0.1,0-0.1-0.1-0.2L12.8,37z M11.7,35.8c0-0.1,0-0.1,0-0.2v-0.1c0-0.2,0.1-0.5,0.3-0.6c0.2-0.2,0.4-0.3,0.6-0.3
	h0.2L11.7,35.8z"/>
<path class="st0" d="M17.9,35.3l-1.6-1.2c-0.1-0.1-0.3-0.1-0.4,0l-1.6,1.2c-0.1,0-0.1,0.1-0.1,0.2c0,0,0,0,0,0c0,0.1,0,0.1,0.1,0.2
	c0.1,0.1,0.1,0.1,0.2,0.1c0,0,0,0,0,0c0.1,0,0.1,0,0.2-0.1l1.1-0.8v3.2c0,0.1,0,0.2,0.1,0.2s0.1,0.1,0.2,0.1s0.2,0,0.2-0.1
	c0.1-0.1,0.1-0.1,0.1-0.2V35l1.1,0.8c0.1,0,0.1,0.1,0.2,0.1c0,0,0,0,0,0c0.1,0,0.1,0,0.2-0.1c0-0.1,0.1-0.1,0.1-0.2c0,0,0,0,0,0
	C18,35.5,17.9,35.4,17.9,35.3z"/>
<path class="st0" d="M19.4,34.1h-0.8c-0.2,0-0.3,0.1-0.3,0.3v3.8c0,0.2,0.1,0.3,0.3,0.3h0.8c0.7,0,1.3-0.2,1.7-0.6
	c0.4-0.4,0.5-0.9,0.5-1.6c0-0.6-0.2-1.2-0.5-1.6C20.7,34.3,20.1,34.1,19.4,34.1z M20.8,37.2c-0.1,0.1-0.2,0.3-0.3,0.4
	c-0.2,0.2-0.6,0.3-1.1,0.3h-0.5v-3.2h0.5c0.5,0,0.9,0.1,1.1,0.3c0.1,0.1,0.2,0.2,0.3,0.4c0.1,0.3,0.2,0.6,0.2,0.9
	C21,36.6,21,36.9,20.8,37.2z"/>
<path class="st0" d="M22.7,37.8c0-0.1,0-0.2-0.1-0.2c-0.1-0.1-0.1-0.1-0.2-0.1s-0.2,0-0.2,0.1l0,0l0,0c-0.1-0.1-0.3-0.1-0.4,0
	c-0.1,0.1-0.1,0.1-0.1,0.2s0,0.2,0.1,0.2l0,0l0,0c-0.1,0.1-0.1,0.1-0.1,0.2c0,0.1,0,0.2,0.1,0.2c0.1,0.1,0.1,0.1,0.2,0.1
	c0.1,0,0.2,0,0.2-0.1l0,0l0,0c0.1,0.1,0.1,0.1,0.2,0.1s0.2,0,0.2-0.1c0.1-0.1,0.1-0.1,0.1-0.2c0-0.1,0-0.2-0.1-0.2l0,0l0,0
	C22.6,37.9,22.7,37.9,22.7,37.8z"/>
<path class="st0" d="M24.4,34.1c-0.3,0-0.6,0.1-0.8,0.2c-0.2,0.1-0.4,0.3-0.5,0.5C23,35,23,35.3,23,35.6c0,0.2,0.1,0.3,0.3,0.3H25
	c-0.1,0.1-0.2,0.3-0.4,0.4l-0.8,0.7L22.9,38c-0.1,0.1-0.1,0.1-0.1,0.2c0,0,0,0.1,0,0.1c0.1,0.1,0.1,0.2,0.3,0.2h2.3
	c0.1,0,0.2,0,0.2-0.1s0.1-0.1,0.1-0.2s0-0.2-0.1-0.2s-0.1-0.1-0.2-0.1h-1.5l0.5-0.4l0.4-0.4l0.3-0.3c0.1-0.1,0.2-0.2,0.3-0.3
	c0.1-0.1,0.1-0.2,0.2-0.3c0.1-0.2,0.2-0.4,0.2-0.6v0c0-0.1,0-0.1,0-0.2c0-0.4-0.1-0.7-0.4-1C25.1,34.2,24.8,34.1,24.4,34.1z
	 M23.6,35.3c0.1-0.4,0.3-0.6,0.8-0.6c0.2,0,0.4,0.1,0.5,0.2c0.1,0.1,0.2,0.3,0.2,0.4H23.6z"/>
<path class="st0" d="M28.9,34.4L28.9,34.4c0-0.1,0-0.1,0-0.1c0,0,0-0.1,0-0.1c0-0.1-0.1-0.1-0.2-0.2c0,0-0.1,0-0.1,0
	c0,0-0.1,0-0.1,0c-0.1,0-0.1,0.1-0.1,0.1c-0.1,0-0.3-0.1-0.4-0.1c-0.3,0-0.6,0.1-0.9,0.3c-0.3,0.2-0.5,0.5-0.7,0.8
	c-0.2,0.3-0.2,0.7-0.2,1.1s0.1,0.8,0.2,1.1c0.2,0.3,0.4,0.6,0.7,0.8l0,0.1c0,0,0,0.1,0,0.1c0,0,0,0.1,0,0.1c0,0.1,0.1,0.1,0.2,0.2
	c0,0,0.1,0,0.1,0c0,0,0.1,0,0.1,0c0.1,0,0.1-0.1,0.1-0.2c0.1,0,0.3,0,0.4,0c0.3,0,0.6-0.1,0.9-0.3c0.3-0.2,0.5-0.5,0.7-0.8
	c0.2-0.3,0.2-0.7,0.2-1.1s-0.1-0.8-0.2-1.1C29.4,34.8,29.2,34.6,28.9,34.4z M27.2,37.5c0,0-0.1-0.1-0.1-0.2
	c-0.2-0.3-0.4-0.7-0.4-1.1s0.1-0.8,0.4-1.1c0.2-0.3,0.5-0.5,0.9-0.5c0.1,0,0.2,0,0.2,0L27.2,37.5z M28.8,37.4
	c-0.2,0.3-0.5,0.5-0.9,0.5c-0.1,0-0.1,0-0.2,0l1-2.8c0,0,0.1,0.1,0.1,0.1c0.2,0.3,0.4,0.7,0.4,1.1S29.1,37.1,28.8,37.4z"/>
<path class="st0" d="M31.5,34.1c-0.3,0-0.6,0.1-0.8,0.2s-0.4,0.3-0.5,0.5s-0.1,0.5-0.1,0.8c0,0.2,0.1,0.3,0.3,0.3h1.7
	c-0.1,0.1-0.2,0.3-0.4,0.4L31,37.1L30.1,38C30,38,30,38.1,30,38.2c0,0,0,0.1,0,0.1c0.1,0.1,0.1,0.2,0.3,0.2h2.3c0.1,0,0.2,0,0.2-0.1
	c0.1-0.1,0.1-0.1,0.1-0.2s0-0.2-0.1-0.2c-0.1-0.1-0.1-0.1-0.2-0.1H31l0.5-0.4l0.4-0.4l0.3-0.3c0.1-0.1,0.2-0.2,0.3-0.3
	c0.1-0.1,0.1-0.2,0.2-0.3c0.1-0.2,0.2-0.4,0.2-0.6v0c0-0.1,0-0.1,0-0.2c0-0.4-0.1-0.7-0.4-1C32.3,34.2,32,34.1,31.5,34.1z
	 M30.8,35.3c0.1-0.4,0.3-0.6,0.8-0.6c0.2,0,0.4,0.1,0.5,0.2c0.1,0.1,0.2,0.3,0.2,0.4H30.8z"/>
<path class="st0" d="M35.8,34.1c0,0-0.1,0-0.1,0c-0.1,0-0.2,0-0.2,0.1l-2,2.5c0,0.1-0.1,0.1-0.1,0.2c0,0,0,0.1,0,0.1
	c0.1,0.1,0.1,0.2,0.3,0.2h1.7v0.7h-0.7c-0.1,0-0.2,0-0.2,0.1c-0.1,0.1-0.1,0.1-0.1,0.2s0,0.2,0.1,0.2c0.1,0.1,0.1,0.1,0.2,0.1h1
	c0.2,0,0.3-0.1,0.3-0.3v-3.8C36,34.2,36,34.1,35.8,34.1z M35.4,36.6h-1.1l1.1-1.4V36.6z"/>
</svg>
